# xmcd
#
# Track frame offsets: 
#        150
#        9784
#        19247
#        34581
#        48267
#        58766
#        73223
#        80616
#        94970
#        104054
#        119469
#        128934
#        136126
#        145068
#        157017
#        169590
#        178252
#        185486
#        196716
#        210582
#        216297
#        221243
#        228328
#        240742
#        251352
#
# Disc length: 3499 seconds
#
# Revision: 0
# Processed by: cddbd v1.5.2PL0 Copyright (c) Steve Scherf et al.
# Submitted via: ExactAudioCopy v0.95b4
#
DISCID=6f0da919
DTITLE=Hakim Rahsul - Playing On The River
DYEAR=2011
DGENRE=Blues
TTITLE0=Harlem Nocturne
TTITLE1=In the Mood
TTITLE2=Skylark
TTITLE3=Moon River
TTITLE4=Going to Kansas City
TTITLE5=Somewhere over the Rainbow
TTITLE6=Love to see You Smile
TTITLE7=The Best is yet to Come
TTITLE8=King of the Road
TTITLE9=I Thought About You
TTITLE10=Under the Boardwalk
TTITLE11=Sentimental Journey
TTITLE12=What a Wonderful World
TTITLE13=Misty
TTITLE14=Wang, Dang, Doodle
TTITLE15=Tequila
TTITLE16=Alright, Ok
TTITLE17=Satin Doll
TTITLE18=Don't Worry Be Happy
TTITLE19=If you're Happy and You Know it
TTITLE20=On the Good Ship Lolipop
TTITLE21=Do the Hokey Pokey
TTITLE22=Daddy's Home to Stay
TTITLE23=Route 66
TTITLE24=Something
EXTD=
EXTT0=
EXTT1=
EXTT2=
EXTT3=
EXTT4=
EXTT5=
EXTT6=
EXTT7=
EXTT8=
EXTT9=
EXTT10=
EXTT11=
EXTT12=
EXTT13=
EXTT14=
EXTT15=
EXTT16=
EXTT17=
EXTT18=
EXTT19=
EXTT20=
EXTT21=
EXTT22=
EXTT23=
EXTT24=
PLAYORDER=
